<svg width="12" height="12" viewBox="0 0 12 12" fill="none" xmlns="http://www.w3.org/2000/svg">
<path d="M6 6.375C6.815 6.375 7.535 6.57 8.12 6.825C8.66 7.065 9 7.605 9 8.19V9H3V8.195C3 7.605 3.34 7.065 3.88 6.83C4.465 6.57 5.185 6.375 6 6.375ZM2 6.5C2.55 6.5 3 6.05 3 5.5C3 4.95 2.55 4.5 2 4.5C1.45 4.5 1 4.95 1 5.5C1 6.05 1.45 6.5 2 6.5ZM2.565 7.05C2.38 7.02 2.195 7 2 7C1.505 7 1.035 7.105 0.61 7.29C0.24 7.45 0 7.81 0 8.215V9H2.25V8.195C2.25 7.78 2.365 7.39 2.565 7.05ZM10 6.5C10.55 6.5 11 6.05 11 5.5C11 4.95 10.55 4.5 10 4.5C9.45 4.5 9 4.95 9 5.5C9 6.05 9.45 6.5 10 6.5ZM12 8.215C12 7.81 11.76 7.45 11.39 7.29C10.965 7.105 10.495 7 10 7C9.805 7 9.62 7.02 9.435 7.05C9.635 7.39 9.75 7.78 9.75 8.195V9H12V8.215ZM6 3C6.83 3 7.5 3.67 7.5 4.5C7.5 5.33 6.83 6 6 6C5.17 6 4.5 5.33 4.5 4.5C4.5 3.67 5.17 3 6 3Z" fill="black"/>
</svg>
