<svg width="12" height="12" viewBox="0 0 12 12" fill="none" xmlns="http://www.w3.org/2000/svg">
<path d="M4.5 5.62V3.75C4.5 3.06 5.06 2.5 5.75 2.5C6.44 2.5 7 3.06 7 3.75V5.62C7.605 5.215 8 4.53 8 3.75C8 2.505 6.995 1.5 5.75 1.5C4.505 1.5 3.5 2.505 3.5 3.75C3.5 4.53 3.895 5.215 4.5 5.62ZM9.42 7.935L7.15 6.805C7.065 6.77 6.975 6.75 6.88 6.75H6.5V3.75C6.5 3.335 6.165 3 5.75 3C5.335 3 5 3.335 5 3.75V9.12C3.2 8.74 3.23 8.745 3.165 8.745C3.01 8.745 2.87 8.81 2.77 8.91L2.375 9.31L4.845 11.78C4.98 11.915 5.17 12 5.375 12H8.77C9.145 12 9.435 11.725 9.49 11.36L9.865 8.725C9.87 8.69 9.875 8.655 9.875 8.625C9.875 8.315 9.685 8.045 9.42 7.935Z" fill="black"/>
</svg>
