<svg width="12" height="12" viewBox="0 0 12 12" fill="none" xmlns="http://www.w3.org/2000/svg">
<path d="M3.6 8.79998C4.48366 8.79998 5.2 8.08363 5.2 7.19998C5.2 6.31632 4.48366 5.59998 3.6 5.59998C2.71634 5.59998 2 6.31632 2 7.19998C2 8.08363 2.71634 8.79998 3.6 8.79998Z" fill="black"/>
<path d="M7.39999 10C7.95228 10 8.39999 9.55228 8.39999 9C8.39999 8.44772 7.95228 8 7.39999 8C6.84771 8 6.39999 8.44772 6.39999 9C6.39999 9.55228 6.84771 10 7.39999 10Z" fill="black"/>
<path d="M7.6 6.8C8.92548 6.8 10 5.72548 10 4.4C10 3.07452 8.92548 2 7.6 2C6.27451 2 5.2 3.07452 5.2 4.4C5.2 5.72548 6.27451 6.8 7.6 6.8Z" fill="black"/>
</svg>
