<svg width="10" height="10" viewBox="0 0 10 10" fill="none" xmlns="http://www.w3.org/2000/svg">
<path d="M10 7.27107C10 8.77528 8.77755 9.99773 7.27335 9.99773V9.31606C8.40036 9.31606 9.31834 8.39809 9.31834 7.27107H10ZM0.00227218 2.72665C0.00227218 1.22245 1.22472 0 2.72893 0V0.681663C1.60191 0.681663 0.683935 1.59964 0.683935 2.72665H0.00227218ZM3.18791 1.50875L1.09748 3.59918C-0.365826 5.06249 -0.365826 7.43922 1.09748 8.90252C2.56078 10.3658 4.93751 10.3658 6.40082 8.90252L9.61372 5.68962C9.8364 5.46694 9.8364 5.10793 9.61372 4.88525C9.39105 4.66258 9.03204 4.66258 8.80936 4.88525L6.80073 6.89389L6.47807 6.57123L9.45013 3.59918C9.6728 3.37651 9.6728 3.0175 9.45013 2.79482C9.22745 2.57214 8.86844 2.57214 8.64576 2.79482L5.99636 5.44422L5.67371 5.12156L8.80482 1.99046C9.02749 1.76778 9.02749 1.40877 8.80482 1.18609C8.58214 0.963417 8.22313 0.963417 8.00045 1.18609L4.86935 4.3172L4.55578 3.99909L7.04613 1.50875C7.2688 1.28607 7.2688 0.927062 7.04613 0.704385C6.82345 0.481709 6.46444 0.481709 6.24176 0.704385L2.77891 4.16723C3.33333 4.88071 3.28334 5.91229 2.62895 6.56669L2.30629 6.24403C2.83799 5.71234 2.83799 4.8489 2.30629 4.3172L2.14724 4.15815L3.99682 2.30857C4.2195 2.08589 4.2195 1.72688 3.99682 1.5042C3.7696 1.28607 3.41059 1.28607 3.18791 1.50875Z" fill="black"/>
</svg>
