<svg width="74" height="77" viewBox="0 0 74 77" fill="none" xmlns="http://www.w3.org/2000/svg">
<rect width="74" height="77" rx="4" fill="#4B73F6"/>
<path d="M12.904 64C12.376 64 11.92 63.808 11.536 63.424C11.152 63.04 10.96 62.584 10.96 62.056V15.544C10.96 15.016 11.152 14.56 11.536 14.176C11.92 13.792 12.376 13.6 12.904 13.6H24.28C25.24 13.6 25.96 13.864 26.44 14.392C26.92 14.92 27.232 15.304 27.376 15.544L37.816 32.824L48.256 15.544C48.4 15.304 48.712 14.92 49.192 14.392C49.672 13.864 50.392 13.6 51.352 13.6H62.728C63.256 13.6 63.712 13.792 64.096 14.176C64.48 14.56 64.672 15.016 64.672 15.544V62.056C64.672 62.584 64.48 63.04 64.096 63.424C63.712 63.808 63.256 64 62.728 64H49.696C49.168 64 48.712 63.808 48.328 63.424C47.944 63.04 47.752 62.584 47.752 62.056V42.328L43 50.104C42.76 50.488 42.424 50.896 41.992 51.328C41.608 51.712 41.056 51.904 40.336 51.904H35.296C34.576 51.904 34 51.712 33.568 51.328C33.184 50.896 32.872 50.488 32.632 50.104L27.88 42.328V62.056C27.88 62.584 27.688 63.04 27.304 63.424C26.92 63.808 26.464 64 25.936 64H12.904Z" fill="white"/>
</svg>
